<svg width="31" height="30" viewBox="0 0 31 30" fill="none" xmlns="http://www.w3.org/2000/svg">
<path d="M15.4998 22.8465C15.0002 22.8465 14.5859 22.4323 14.5859 21.9327V18.2772C14.5859 17.7776 15.0002 17.3633 15.4998 17.3633C15.9994 17.3633 16.4137 17.7776 16.4137 18.2772V21.9327C16.4137 22.4323 15.9994 22.8465 15.4998 22.8465Z" fill="white"/>
<path d="M22.323 27.4914H8.67572C6.45805 27.4914 4.43533 25.7855 4.06978 23.6043L2.44917 13.8929C2.1811 12.3819 2.92439 10.4445 4.13071 9.48189L12.5749 2.7192C14.2077 1.40321 16.7788 1.4154 18.4237 2.73138L26.868 9.48189C28.0621 10.4445 28.7932 12.3819 28.5495 13.8929L26.9289 23.5922C26.5633 25.7489 24.4919 27.4914 22.323 27.4914ZM15.4872 3.57215C14.8413 3.57215 14.1955 3.76711 13.7203 4.14485L5.2761 10.9197C4.59374 11.468 4.10634 12.7353 4.25256 13.6004L5.87317 23.2997C6.0925 24.5791 7.37192 25.6636 8.67572 25.6636H22.323C23.6268 25.6636 24.9062 24.5791 25.1255 23.2875L26.7461 13.5882C26.8802 12.7353 26.3928 11.4437 25.7226 10.9075L17.2784 4.15703C16.791 3.76711 16.133 3.57215 15.4872 3.57215Z" fill="white"/>
</svg>
