<svg width="22" height="22" viewBox="0 0 22 22" fill="none" xmlns="http://www.w3.org/2000/svg">
<g id="vuesax/twotone/profile">
<g id="profile">
<path id="Vector" d="M11.1467 9.96409C11.0551 9.95492 10.9451 9.95492 10.8442 9.96409C8.66255 9.89075 6.93005 8.10325 6.93005 5.90325C6.93005 3.65742 8.74505 1.83325 11.0001 1.83325C13.2459 1.83325 15.0701 3.65742 15.0701 5.90325C15.0609 8.10325 13.3284 9.89075 11.1467 9.96409Z" stroke="#202224" stroke-width="1.375" stroke-linecap="round" stroke-linejoin="round"/>
<path id="Vector_2" d="M6.56329 13.3467C4.34495 14.8317 4.34495 17.2517 6.56329 18.7276C9.08412 20.4142 13.2183 20.4142 15.7391 18.7276C17.9575 17.2426 17.9575 14.8226 15.7391 13.3467C13.2275 11.6692 9.09329 11.6692 6.56329 13.3467Z" stroke="#202224" stroke-width="1.375" stroke-linecap="round" stroke-linejoin="round"/>
</g>
</g>
</svg>
