<svg width="22" height="22" viewBox="0 0 22 22" fill="none" xmlns="http://www.w3.org/2000/svg">
<g id="vuesax/twotone/money-recive">
<g id="money-recive">
<g id="Group 40">
<path id="Vector" d="M8.70837 12.6041C8.70837 13.4933 9.39589 14.2083 10.2392 14.2083H11.9625C12.6959 14.2083 13.2917 13.585 13.2917 12.8058C13.2917 11.9716 12.925 11.6691 12.3842 11.4766L9.62504 10.5141C9.08421 10.3216 8.71755 10.0283 8.71755 9.18497C8.71755 8.41497 9.31337 7.78247 10.0467 7.78247H11.77C12.6134 7.78247 13.3009 8.49747 13.3009 9.38664" stroke="#202224" stroke-width="1.375" stroke-linecap="round" stroke-linejoin="round"/>
<path id="Vector_2" d="M11 6.875V15.125" stroke="#202224" stroke-width="1.375" stroke-linecap="round" stroke-linejoin="round"/>
</g>
<path id="Vector_3" d="M20.1667 10.9999C20.1667 16.0599 16.06 20.1666 11 20.1666C5.94004 20.1666 1.83337 16.0599 1.83337 10.9999C1.83337 5.93992 5.94004 1.83325 11 1.83325" stroke="#202224" stroke-width="1.375" stroke-linecap="round" stroke-linejoin="round"/>
<path id="Vector_4" d="M15.5834 2.75V6.41667H19.25" stroke="#202224" stroke-width="1.375" stroke-linecap="round" stroke-linejoin="round"/>
<path id="Vector_5" d="M20.1667 1.83325L15.5834 6.41659" stroke="#202224" stroke-width="1.375" stroke-linecap="round" stroke-linejoin="round"/>
</g>
</g>
</svg>
