<svg width="22" height="22" viewBox="0 0 22 22" fill="none" xmlns="http://www.w3.org/2000/svg">
<g id="vuesax/twotone/chart">
<g id="chart">
<path id="Vector" d="M3.68504 5.47242C2.52087 7.01242 1.83337 8.92825 1.83337 10.9999C1.83337 16.0599 5.94004 20.1666 11 20.1666C16.06 20.1666 20.1667 16.0599 20.1667 10.9999C20.1667 5.93992 16.06 1.83325 11 1.83325" stroke="#202224" stroke-width="1.375" stroke-linecap="round" stroke-linejoin="round"/>
<path id="Vector_2" d="M4.58337 10.9999C4.58337 14.5474 7.45254 17.4166 11 17.4166C14.5475 17.4166 17.4167 14.5474 17.4167 10.9999C17.4167 7.45242 14.5475 4.58325 11 4.58325" stroke="#202224" stroke-width="1.375" stroke-linecap="round" stroke-linejoin="round"/>
<path id="Vector_3" d="M11 14.6666C13.0258 14.6666 14.6667 13.0258 14.6667 10.9999C14.6667 8.97409 13.0258 7.33325 11 7.33325" stroke="#202224" stroke-width="1.375" stroke-linecap="round" stroke-linejoin="round"/>
</g>
</g>
</svg>
