<svg width="238" height="59" viewBox="0 0 238 59" fill="none" xmlns="http://www.w3.org/2000/svg">
<circle cx="29.3294" cy="29.3294" r="8.57936" fill="white"/>
<circle cx="29.3296" cy="29.3286" r="19.7525" fill="white" fill-opacity="0.61"/>
<circle cx="29.3296" cy="29.3286" r="19.7525" stroke="#FF375F"/>
<circle cx="29.3294" cy="29.3294" r="29.3294" fill="white" fill-opacity="0.63"/>
<path d="M117.693 32.0607C117.693 40.4291 112.36 45.6322 103.818 45.6322C94.5174 45.6322 88.8156 39.3884 88.8156 29.1556C88.8156 19.0745 94.5608 12.744 103.666 12.744C111.059 12.744 116.501 17.0149 117.411 23.5188H110.907C109.932 20.3536 107.309 18.5108 103.666 18.5108C98.6149 18.5108 95.5147 22.5216 95.5147 29.0905C95.5147 35.7896 98.7667 39.8654 103.926 39.8654C108.219 39.8654 111.189 37.3289 111.319 33.5566L111.341 32.9929H104.555V28.0716H117.693V32.0607ZM133.065 45.3504C125.716 45.3504 121.293 40.6892 121.293 32.8628C121.293 25.1231 125.781 20.3969 133.065 20.3969C140.349 20.3969 144.837 25.1015 144.837 32.8628C144.837 40.6892 140.414 45.3504 133.065 45.3504ZM133.065 40.1906C136.425 40.1906 138.355 37.5023 138.355 32.8628C138.355 28.2667 136.404 25.5567 133.065 25.5567C129.705 25.5567 127.775 28.2667 127.775 32.8628C127.775 37.524 129.683 40.1906 133.065 40.1906ZM148.567 27.9415C148.567 23.4104 152.556 20.3969 158.518 20.3969C164.588 20.3969 168.165 22.9335 168.512 27.5079H162.68C162.355 25.9686 160.903 25.0147 158.561 25.0147C156.307 25.0147 154.637 26.0337 154.637 27.5513C154.637 28.722 155.656 29.4374 157.868 29.936L162.355 30.9116C166.995 31.9306 169.076 33.8818 169.076 37.4589C169.076 42.2285 164.805 45.3504 158.54 45.3504C152.231 45.3504 148.415 42.7705 147.982 38.1744H154.139C154.616 39.8004 156.155 40.7326 158.67 40.7326C161.12 40.7326 162.811 39.7136 162.811 38.1744C162.811 37.0037 161.9 36.2882 159.797 35.833L155.461 34.8574C150.822 33.8384 148.567 31.6271 148.567 27.9415ZM187.18 20.527C193.228 20.527 196.935 25.1231 196.935 32.8628C196.935 40.5808 193.272 45.1986 187.288 45.1986C183.863 45.1986 181.239 43.7027 180.069 41.1662H179.678V52.7649H173.369V20.9172H179.483V24.8413H179.873C181.174 22.153 183.884 20.527 187.18 20.527ZM185.033 39.9304C188.437 39.9304 190.453 37.2855 190.453 32.8628C190.453 28.4835 188.415 25.8169 185.055 25.8169C181.695 25.8169 179.613 28.5052 179.613 32.8845C179.613 37.2638 181.695 39.9304 185.033 39.9304ZM211.527 25.2315C208.6 25.2315 206.54 27.2694 206.324 30.3696H216.513C216.383 27.2044 214.475 25.2315 211.527 25.2315ZM216.643 38.0226H222.518C221.565 42.532 217.445 45.3504 211.592 45.3504C204.307 45.3504 200.015 40.7543 200.015 32.9929C200.015 25.2099 204.394 20.3969 211.505 20.3969C218.551 20.3969 222.714 24.8847 222.714 32.4726V34.4021H206.302V34.7273C206.389 38.2828 208.47 40.4941 211.765 40.4941C214.258 40.4941 215.971 39.6052 216.643 38.0226ZM227.224 44.8301V11.79H233.533V44.8301H227.224Z" fill="white"/>
<path d="M74.6007 44.8301V20.7005H82.2754V44.8301H74.6007ZM78.438 17.9038C75.7497 17.9038 74.1237 16.5379 74.1237 14.5C74.1237 12.4404 75.7497 11.0746 78.438 11.0746C81.148 11.0746 82.774 12.4404 82.774 14.5C82.774 16.5379 81.148 17.9038 78.438 17.9038Z" fill="white"/>
</svg>
