<svg width="24" height="24" viewBox="0 0 24 24" fill="none" xmlns="http://www.w3.org/2000/svg">
<path d="M14.44 19.0512L15.96 20.5712L19 17.5312" stroke="#A7A7A7" stroke-width="1.33" stroke-linecap="round" stroke-linejoin="round"/>
<path d="M12.16 10.87C12.06 10.86 11.94 10.86 11.83 10.87C9.44997 10.79 7.55997 8.84 7.55997 6.44C7.54997 3.99 9.53997 2 11.99 2C14.44 2 16.43 3.99 16.43 6.44C16.43 8.84 14.53 10.79 12.16 10.87Z" stroke="#A7A7A7" stroke-width="1.33" stroke-linecap="round" stroke-linejoin="round"/>
<path d="M11.99 21.8097C10.17 21.8097 8.35998 21.3497 6.97998 20.4297C4.55998 18.8097 4.55998 16.1697 6.97998 14.5597C9.72998 12.7197 14.24 12.7197 16.99 14.5597" stroke="#A7A7A7" stroke-width="1.33" stroke-linecap="round" stroke-linejoin="round"/>
</svg>
