<svg width="49" height="49" viewBox="0 0 49 49" fill="none" xmlns="http://www.w3.org/2000/svg">
<rect x="0.5" y="0.5" width="48" height="48" rx="24" fill="#282828" fill-opacity="0.4"/>
<rect x="0.5" y="0.5" width="48" height="48" rx="24" stroke="#1A1A1A"/>
<path d="M33.8238 29.6706C33.5036 30.5281 32.8291 31.1798 31.9487 31.477C30.7139 31.8886 29.4448 32.1973 28.1643 32.4146C28.0385 32.4374 27.9127 32.4603 27.787 32.4717C27.5812 32.506 27.3754 32.5289 27.1696 32.5518C26.918 32.5861 26.6551 32.6089 26.3921 32.6318C25.6718 32.689 24.9629 32.7233 24.2426 32.7233C23.5109 32.7233 22.7792 32.689 22.0589 32.6204C21.7502 32.5975 21.4529 32.5632 21.1556 32.5175C20.9841 32.4946 20.8126 32.4717 20.6526 32.4489C20.5268 32.426 20.401 32.4146 20.2753 32.3917C19.0062 32.1859 17.7485 31.8772 16.5251 31.4656C15.6105 31.1569 14.913 30.5052 14.6043 29.6706C14.2956 28.8474 14.41 27.887 14.9016 27.0638L16.1936 24.9143C16.468 24.4455 16.7195 23.5423 16.7195 22.9935V20.8669C16.7195 16.7166 20.0923 13.3438 24.2426 13.3438C28.3815 13.3438 31.7543 16.7166 31.7543 20.8669V22.9935C31.7543 23.5423 32.0059 24.4455 32.2917 24.9143L33.5837 27.0638C34.0524 27.8641 34.1439 28.8016 33.8238 29.6706Z" fill="white"/>
<path d="M24.22 23.3017C23.7398 23.3017 23.3511 22.913 23.3511 22.4328V18.8885C23.3511 18.4083 23.7398 18.0195 24.22 18.0195C24.7002 18.0195 25.0889 18.4083 25.0889 18.8885V22.4328C25.0775 22.913 24.6888 23.3017 24.22 23.3017Z" fill="#292D32"/>
<path d="M22.0424 34.5696C22.1 34.5752 22.1579 34.5806 22.216 34.5854C22.8809 34.6437 23.5605 34.679 24.2427 34.679C24.9142 34.679 25.5831 34.6436 26.2372 34.5852L26.2372 34.5852L26.2405 34.5849C26.2897 34.5802 26.3441 34.5757 26.4019 34.5711C25.8746 35.1902 25.0911 35.5822 24.2198 35.5822C23.4664 35.5822 22.7248 35.2756 22.2073 34.7393L22.1974 34.729L22.1869 34.7192C22.1369 34.6723 22.0886 34.6223 22.0424 34.5696Z" fill="#292D32" stroke="white" stroke-width="1.14333"/>
</svg>
