<svg width="214" height="59" viewBox="0 0 214 59" fill="none" xmlns="http://www.w3.org/2000/svg">
<rect x="0.552536" y="0.552536" width="212.895" height="57.8949" rx="7.49832" fill="url(#paint0_radial_3051_18729)"/>
<rect x="0.552536" y="0.552536" width="212.895" height="57.8949" rx="7.49832" stroke="url(#paint1_linear_3051_18729)" stroke-width="0.894928"/>
<path d="M77.1316 39.8117L82.3594 42.8278L85.7776 36.7957L89.1958 42.8278L94.4237 39.8117L91.0055 33.7796H97.8419V27.7475H91.0055L94.4237 21.9164L89.1958 18.9004L85.7776 24.7314L82.3594 18.9004L77.1316 21.9164L80.5498 27.7475H73.7134V33.7796H80.5498L77.1316 39.8117Z" fill="#404040"/>
<path d="M109.303 39.8117L114.531 42.8278L117.949 36.7957L121.367 42.8278L126.595 39.8117L123.177 33.7796H130.013V27.7475H123.177L126.595 21.9164L121.367 18.9004L117.949 24.7314L114.531 18.9004L109.303 21.9164L112.721 27.7475H105.885V33.7796H112.721L109.303 39.8117Z" fill="#404040"/>
<path d="M141.474 39.8117L146.702 42.8278L150.12 36.7957L153.538 42.8278L158.766 39.8117L155.348 33.7796H162.184V27.7475H155.348L158.766 21.9164L153.538 18.9004L150.12 24.7314L146.702 18.9004L141.474 21.9164L144.892 27.7475H138.056V33.7796H144.892L141.474 39.8117Z" fill="#404040"/>
<path fill-rule="evenodd" clip-rule="evenodd" d="M172.827 39.8117L178.055 42.8278L181.473 36.7957L184.892 42.8278L190.119 39.8117L186.701 33.7796H193.538V27.7475H186.701L190.119 21.9164L184.892 18.9004L181.473 24.7314L178.055 18.9004L172.827 21.9164L176.246 27.7475H169.409V33.7796H176.246L172.827 39.8117Z" fill="#404040"/>
<path d="M45.8083 18H22.8676C21.2904 18 20 19.3553 20 21.0117V39.0821C20 40.7386 21.2904 42.0939 22.8676 42.0939H45.8083C47.3855 42.0939 48.6759 40.7386 48.6759 39.0821V21.0117C48.6759 19.3553 47.3855 18 45.8083 18ZM45.2348 24.3999L35.8578 30.5589C34.9258 31.1763 33.7501 31.1763 32.8181 30.5589L23.4411 24.3999C23.2973 24.3152 23.1714 24.2006 23.071 24.0633C22.9706 23.926 22.8978 23.7686 22.8569 23.6009C22.8161 23.4331 22.8081 23.2584 22.8334 23.0873C22.8587 22.9162 22.9168 22.7522 23.0042 22.6054C23.0916 22.4586 23.2064 22.3319 23.3418 22.233C23.4771 22.1341 23.6302 22.0651 23.7917 22.0301C23.9531 21.9952 24.1197 21.995 24.2812 22.0296C24.4428 22.0642 24.596 22.1329 24.7315 22.2315L34.338 28.5411L43.9444 22.2315C44.0799 22.1329 44.2331 22.0642 44.3947 22.0296C44.5562 21.995 44.7228 21.9952 44.8843 22.0301C45.0457 22.0651 45.1988 22.1341 45.3341 22.233C45.4695 22.3319 45.5843 22.4586 45.6717 22.6054C45.7591 22.7522 45.8172 22.9162 45.8425 23.0873C45.8678 23.2584 45.8598 23.4331 45.819 23.6009C45.7781 23.7686 45.7053 23.926 45.6049 24.0633C45.5045 24.2006 45.3786 24.3152 45.2348 24.3999Z" fill="#404040"/>
<defs>
<radialGradient id="paint0_radial_3051_18729" cx="0" cy="0" r="1" gradientUnits="userSpaceOnUse" gradientTransform="translate(106.603 26.3356) rotate(89.2817) scale(31.6669 117.784)">
<stop offset="0.299248" stop-color="#1A1A1A"/>
<stop offset="1" stop-color="#151515"/>
</radialGradient>
<linearGradient id="paint1_linear_3051_18729" x1="107" y1="1" x2="107" y2="58" gradientUnits="userSpaceOnUse">
<stop stop-color="#303030"/>
<stop offset="1" stop-color="#1B1B1B"/>
</linearGradient>
</defs>
</svg>
