<svg width="131" height="33" viewBox="0 0 131 33" fill="none" xmlns="http://www.w3.org/2000/svg">
<circle cx="16.0698" cy="16.0678" r="4.70061" fill="#FF375F"/>
<circle cx="16.0694" cy="16.0684" r="10.8223" fill="#FF375F" fill-opacity="0.39"/>
<circle cx="16.0694" cy="16.0684" r="10.8223" stroke="#FF375F"/>
<circle cx="16.0695" cy="16.0695" r="16.0695" fill="#FF375F" fill-opacity="0.36"/>
<circle cx="16.0695" cy="16.0695" r="16.0471" stroke="#FF375F" stroke-opacity="0.24" stroke-width="0.0448393"/>
<path d="M64.4842 17.574C64.4842 22.159 61.5621 25.0098 56.882 25.0098C51.7862 25.0098 48.6622 21.5889 48.6622 15.9823C48.6622 10.4589 51.81 6.9904 56.7989 6.9904C60.8494 6.9904 63.8309 9.33043 64.3298 12.8939H60.7663C60.2317 11.1597 58.7945 10.15 56.7989 10.15C54.0312 10.15 52.3326 12.3475 52.3326 15.9467C52.3326 19.6171 54.1144 21.8502 56.9414 21.8502C59.2933 21.8502 60.9207 20.4604 60.9919 18.3936L61.0038 18.0847H57.2859V15.3884H64.4842V17.574ZM72.9064 24.8554C68.8796 24.8554 66.4564 22.3016 66.4564 18.0135C66.4564 13.7729 68.9153 11.1834 72.9064 11.1834C76.8975 11.1834 79.3563 13.761 79.3563 18.0135C79.3563 22.3016 76.9331 24.8554 72.9064 24.8554ZM72.9064 22.0284C74.7475 22.0284 75.8047 20.5554 75.8047 18.0135C75.8047 15.4953 74.7356 14.0105 72.9064 14.0105C71.0652 14.0105 70.0081 15.4953 70.0081 18.0135C70.0081 20.5673 71.0534 22.0284 72.9064 22.0284ZM81.3999 15.3171C81.3999 12.8345 83.5855 11.1834 86.852 11.1834C90.1779 11.1834 92.1379 12.5732 92.3279 15.0795H89.1326C88.9545 14.2362 88.1586 13.7135 86.8758 13.7135C85.6404 13.7135 84.7258 14.2718 84.7258 15.1033C84.7258 15.7447 85.2841 16.1367 86.4957 16.4099L88.9545 16.9444C91.4964 17.5027 92.6367 18.5718 92.6367 20.5317C92.6367 23.1449 90.2967 24.8554 86.8639 24.8554C83.4073 24.8554 81.3167 23.4419 81.0791 20.9237H84.4526C84.7139 21.8145 85.5573 22.3253 86.9351 22.3253C88.2774 22.3253 89.2039 21.767 89.2039 20.9237C89.2039 20.2822 88.705 19.8903 87.5528 19.6408L85.1772 19.1063C82.6352 18.548 81.3999 17.3364 81.3999 15.3171ZM102.556 11.2547C105.87 11.2547 107.901 13.7729 107.901 18.0135C107.901 22.2422 105.893 24.7722 102.615 24.7722C100.738 24.7722 99.301 23.9526 98.6595 22.5629H98.4457V28.9178H94.9891V11.4685H98.3388V13.6185H98.5526C99.2653 12.1456 100.75 11.2547 102.556 11.2547ZM101.38 21.8858C103.245 21.8858 104.349 20.4367 104.349 18.0135C104.349 15.6141 103.233 14.153 101.392 14.153C99.5504 14.153 98.4101 15.6259 98.4101 18.0254C98.4101 20.4248 99.5504 21.8858 101.38 21.8858ZM115.895 13.8323C114.292 13.8323 113.163 14.9489 113.045 16.6475H118.627C118.556 14.9132 117.511 13.8323 115.895 13.8323ZM118.699 20.8405H121.918C121.395 23.3112 119.138 24.8554 115.931 24.8554C111.94 24.8554 109.588 22.3372 109.588 18.0847C109.588 13.8204 111.987 11.1834 115.884 11.1834C119.744 11.1834 122.025 13.6423 122.025 17.7997V18.8568H113.033V19.035C113.08 20.9831 114.221 22.1946 116.026 22.1946C117.392 22.1946 118.331 21.7076 118.699 20.8405ZM124.496 24.5703V6.46775H127.952V24.5703H124.496Z" fill="white"/>
<path d="M40.8736 24.5703V11.3497H45.0785V24.5703H40.8736ZM42.976 9.81744C41.5031 9.81744 40.6123 9.0691 40.6123 7.95254C40.6123 6.8241 41.5031 6.07577 42.976 6.07577C44.4608 6.07577 45.3517 6.8241 45.3517 7.95254C45.3517 9.0691 44.4608 9.81744 42.976 9.81744Z" fill="white"/>
</svg>
